<?xml version="1.0" encoding="UTF-8"?>
<svg xmlns="http://www.w3.org/2000/svg" xmlns:xlink="http://www.w3.org/1999/xlink" width="113.386" height="113.382" viewBox="0 0 113.386 113.382">
<defs>
<clipPath id="clip-0">
<path clip-rule="nonzero" d="M 93 41 L 112.773438 41 L 112.773438 61 L 93 61 Z M 93 41 "/>
</clipPath>
<clipPath id="clip-1">
<path clip-rule="nonzero" d="M 39 93 L 59 93 L 59 112.765625 L 39 112.765625 Z M 39 93 "/>
</clipPath>
</defs>
<path fill-rule="nonzero" fill="rgb(63.134766%, 70.588684%, 78.039551%)" fill-opacity="1" stroke-width="0.3985" stroke-linecap="butt" stroke-linejoin="miter" stroke="rgb(63.134766%, 70.588684%, 78.039551%)" stroke-opacity="1" stroke-miterlimit="10" d="M 52.682694 7.374394 C 52.682694 8.474106 51.787215 9.365658 50.687503 9.365658 C 49.587792 9.365658 48.69624 8.474106 48.69624 7.374394 C 48.69624 6.274683 49.587792 5.383131 50.687503 5.383131 C 51.787215 5.383131 52.682694 6.274683 52.682694 7.374394 Z M 52.682694 7.374394 " transform="matrix(0.994579, 0, 0, -0.994579, 9.399776, 103.369574)"/>
<path fill-rule="nonzero" fill="rgb(63.134766%, 70.588684%, 78.039551%)" fill-opacity="1" stroke-width="0.3985" stroke-linecap="butt" stroke-linejoin="miter" stroke="rgb(63.134766%, 70.588684%, 78.039551%)" stroke-opacity="1" stroke-miterlimit="10" d="M 79.802368 2.441402 C 79.802368 3.545042 78.910816 4.436593 77.811104 4.436593 C 76.711393 4.436593 75.815913 3.545042 75.815913 2.441402 C 75.815913 1.341691 76.711393 0.450139 77.811104 0.450139 C 78.910816 0.450139 79.802368 1.341691 79.802368 2.441402 Z M 79.802368 2.441402 " transform="matrix(0.994579, 0, 0, -0.994579, 9.399776, 103.369574)"/>
<path fill-rule="nonzero" fill="rgb(63.134766%, 70.588684%, 78.039551%)" fill-opacity="1" stroke-width="0.3985" stroke-linecap="butt" stroke-linejoin="miter" stroke="rgb(63.134766%, 70.588684%, 78.039551%)" stroke-opacity="1" stroke-miterlimit="10" d="M 43.358711 45.5933 C 43.358711 46.693012 42.467159 47.584563 41.367447 47.584563 C 40.267736 47.584563 39.376184 46.693012 39.376184 45.5933 C 39.376184 44.493588 40.267736 43.598109 41.367447 43.598109 C 42.467159 43.598109 43.358711 44.493588 43.358711 45.5933 Z M 43.358711 45.5933 " transform="matrix(0.994579, 0, 0, -0.994579, 9.399776, 103.369574)"/>
<path fill-rule="nonzero" fill="rgb(63.134766%, 70.588684%, 78.039551%)" fill-opacity="1" stroke-width="0.3985" stroke-linecap="butt" stroke-linejoin="miter" stroke="rgb(63.134766%, 70.588684%, 78.039551%)" stroke-opacity="1" stroke-miterlimit="10" d="M 47.541542 53.090976 C 47.541542 54.190688 46.649991 55.086168 45.550279 55.086168 C 44.44664 55.086168 43.555088 54.190688 43.555088 53.090976 C 43.555088 51.991265 44.44664 51.099713 45.550279 51.099713 C 46.649991 51.099713 47.541542 51.991265 47.541542 53.090976 Z M 47.541542 53.090976 " transform="matrix(0.994579, 0, 0, -0.994579, 9.399776, 103.369574)"/>
<path fill-rule="nonzero" fill="rgb(63.134766%, 70.588684%, 78.039551%)" fill-opacity="1" stroke-width="0.3985" stroke-linecap="butt" stroke-linejoin="miter" stroke="rgb(63.134766%, 70.588684%, 78.039551%)" stroke-opacity="1" stroke-miterlimit="10" d="M 80.147991 92.645246 C 80.147991 93.744958 79.256439 94.636509 78.156728 94.636509 C 77.057016 94.636509 76.165464 93.744958 76.165464 92.645246 C 76.165464 91.545534 77.057016 90.653982 78.156728 90.653982 C 79.256439 90.653982 80.147991 91.545534 80.147991 92.645246 Z M 80.147991 92.645246 " transform="matrix(0.994579, 0, 0, -0.994579, 9.399776, 103.369574)"/>
<path fill-rule="nonzero" fill="rgb(63.134766%, 70.588684%, 78.039551%)" fill-opacity="1" stroke-width="0.3985" stroke-linecap="butt" stroke-linejoin="miter" stroke="rgb(63.134766%, 70.588684%, 78.039551%)" stroke-opacity="1" stroke-miterlimit="10" d="M 32.000261 59.701029 C 32.000261 60.804668 31.108709 61.69622 30.00507 61.69622 C 28.905358 61.69622 28.013807 60.804668 28.013807 59.701029 C 28.013807 58.601317 28.905358 57.709765 30.00507 57.709765 C 31.108709 57.709765 32.000261 58.601317 32.000261 59.701029 Z M 32.000261 59.701029 " transform="matrix(0.994579, 0, 0, -0.994579, 9.399776, 103.369574)"/>
<path fill-rule="nonzero" fill="rgb(63.134766%, 70.588684%, 78.039551%)" fill-opacity="1" stroke-width="0.3985" stroke-linecap="butt" stroke-linejoin="miter" stroke="rgb(63.134766%, 70.588684%, 78.039551%)" stroke-opacity="1" stroke-miterlimit="10" d="M 75.729507 21.611732 C 75.729507 22.711444 74.837955 23.602996 73.738244 23.602996 C 72.638532 23.602996 71.74698 22.711444 71.74698 21.611732 C 71.74698 20.508093 72.638532 19.616541 73.738244 19.616541 C 74.837955 19.616541 75.729507 20.508093 75.729507 21.611732 Z M 75.729507 21.611732 " transform="matrix(0.994579, 0, 0, -0.994579, 9.399776, 103.369574)"/>
<path fill-rule="nonzero" fill="rgb(63.134766%, 70.588684%, 78.039551%)" fill-opacity="1" stroke-width="0.3985" stroke-linecap="butt" stroke-linejoin="miter" stroke="rgb(63.134766%, 70.588684%, 78.039551%)" stroke-opacity="1" stroke-miterlimit="10" d="M 1.993845 94.483335 C 1.993845 95.586975 1.102293 96.478526 -0.00134627 96.478526 C -1.101058 96.478526 -1.99261 95.586975 -1.99261 94.483335 C -1.99261 93.383624 -1.101058 92.492072 -0.00134627 92.492072 C 1.102293 92.492072 1.993845 93.383624 1.993845 94.483335 Z M 1.993845 94.483335 " transform="matrix(0.994579, 0, 0, -0.994579, 9.399776, 103.369574)"/>
<path fill-rule="nonzero" fill="rgb(63.134766%, 70.588684%, 78.039551%)" fill-opacity="1" stroke-width="0.3985" stroke-linecap="butt" stroke-linejoin="miter" stroke="rgb(63.134766%, 70.588684%, 78.039551%)" stroke-opacity="1" stroke-miterlimit="10" d="M 33.508437 23.885779 C 33.508437 24.98549 32.612958 25.88097 31.513246 25.88097 C 30.413534 25.88097 29.521982 24.98549 29.521982 23.885779 C 29.521982 22.786067 30.413534 21.894515 31.513246 21.894515 C 32.612958 21.894515 33.508437 22.786067 33.508437 23.885779 Z M 33.508437 23.885779 " transform="matrix(0.994579, 0, 0, -0.994579, 9.399776, 103.369574)"/>
<path fill-rule="nonzero" fill="rgb(63.134766%, 70.588684%, 78.039551%)" fill-opacity="1" stroke-width="0.3985" stroke-linecap="butt" stroke-linejoin="miter" stroke="rgb(63.134766%, 70.588684%, 78.039551%)" stroke-opacity="1" stroke-miterlimit="10" d="M 96.482636 52.918165 C 96.482636 54.017876 95.587157 54.909428 94.487445 54.909428 C 93.387733 54.909428 92.496181 54.017876 92.496181 52.918165 C 92.496181 51.818453 93.387733 50.922974 94.487445 50.922974 C 95.587157 50.922974 96.482636 51.818453 96.482636 52.918165 Z M 96.482636 52.918165 " transform="matrix(0.994579, 0, 0, -0.994579, 9.399776, 103.369574)"/>
<path fill-rule="nonzero" fill="rgb(63.134766%, 70.588684%, 78.039551%)" fill-opacity="1" stroke-width="0.3985" stroke-linecap="butt" stroke-linejoin="miter" stroke="rgb(63.134766%, 70.588684%, 78.039551%)" stroke-opacity="1" stroke-miterlimit="10" d="M 51.85791 73.054669 C 51.85791 74.154381 50.966359 75.045933 49.866647 75.045933 C 48.766935 75.045933 47.875384 74.154381 47.875384 73.054669 C 47.875384 71.954958 48.766935 71.063406 49.866647 71.063406 C 50.966359 71.063406 51.85791 71.954958 51.85791 73.054669 Z M 51.85791 73.054669 " transform="matrix(0.994579, 0, 0, -0.994579, 9.399776, 103.369574)"/>
<path fill-rule="nonzero" fill="rgb(63.134766%, 70.588684%, 78.039551%)" fill-opacity="1" stroke-width="0.3985" stroke-linecap="butt" stroke-linejoin="miter" stroke="rgb(63.134766%, 70.588684%, 78.039551%)" stroke-opacity="1" stroke-miterlimit="10" d="M 5.0534 65.957602 C 5.0534 67.057314 4.161848 67.948866 3.062136 67.948866 C 1.962424 67.948866 1.070873 67.057314 1.070873 65.957602 C 1.070873 64.853963 1.962424 63.962411 3.062136 63.962411 C 4.161848 63.962411 5.0534 64.853963 5.0534 65.957602 Z M 5.0534 65.957602 " transform="matrix(0.994579, 0, 0, -0.994579, 9.399776, 103.369574)"/>
<path fill-rule="nonzero" fill="rgb(63.134766%, 70.588684%, 78.039551%)" fill-opacity="1" stroke-width="0.3985" stroke-linecap="butt" stroke-linejoin="miter" stroke="rgb(63.134766%, 70.588684%, 78.039551%)" stroke-opacity="1" stroke-miterlimit="10" d="M 41.555969 -0.0015283 C 41.555969 1.102111 40.664417 1.993663 39.564706 1.993663 C 38.464994 1.993663 37.573442 1.102111 37.573442 -0.0015283 C 37.573442 -1.10124 38.464994 -1.992792 39.564706 -1.992792 C 40.664417 -1.992792 41.555969 -1.10124 41.555969 -0.0015283 Z M 41.555969 -0.0015283 " transform="matrix(0.994579, 0, 0, -0.994579, 9.399776, 103.369574)"/>
<path fill-rule="nonzero" fill="rgb(13.723755%, 33.332825%, 23.527527%)" fill-opacity="1" stroke-width="0.3985" stroke-linecap="butt" stroke-linejoin="miter" stroke="rgb(13.723755%, 33.332825%, 23.527527%)" stroke-opacity="1" stroke-miterlimit="10" d="M 54.673958 7.374394 C 54.673958 9.573818 52.890854 11.360849 50.687503 11.360849 C 48.48808 11.360849 46.704976 9.573818 46.704976 7.374394 C 46.704976 5.174971 48.48808 3.38794 50.687503 3.38794 C 52.890854 3.38794 54.673958 5.174971 54.673958 7.374394 Z M 54.673958 7.374394 " transform="matrix(0.994579, 0, 0, -0.994579, 9.399776, 103.369574)"/>
<path fill-rule="nonzero" fill="rgb(13.723755%, 33.332825%, 23.527527%)" fill-opacity="1" stroke-width="0.3985" stroke-linecap="butt" stroke-linejoin="miter" stroke="rgb(13.723755%, 33.332825%, 23.527527%)" stroke-opacity="1" stroke-miterlimit="10" d="M 45.353902 45.5933 C 45.353902 47.792723 43.566871 49.575827 41.367447 49.575827 C 39.164097 49.575827 37.380993 47.792723 37.380993 45.5933 C 37.380993 43.389949 39.164097 41.606845 41.367447 41.606845 C 43.566871 41.606845 45.353902 43.389949 45.353902 45.5933 Z M 45.353902 45.5933 " transform="matrix(0.994579, 0, 0, -0.994579, 9.399776, 103.369574)"/>
<path fill-rule="nonzero" fill="rgb(13.723755%, 33.332825%, 23.527527%)" fill-opacity="1" stroke-width="0.3985" stroke-linecap="butt" stroke-linejoin="miter" stroke="rgb(13.723755%, 33.332825%, 23.527527%)" stroke-opacity="1" stroke-miterlimit="10" d="M 82.139255 92.645246 C 82.139255 94.844669 80.356151 96.631701 78.156728 96.631701 C 75.953377 96.631701 74.170273 94.844669 74.170273 92.645246 C 74.170273 90.441895 75.953377 88.658791 78.156728 88.658791 C 80.356151 88.658791 82.139255 90.441895 82.139255 92.645246 Z M 82.139255 92.645246 " transform="matrix(0.994579, 0, 0, -0.994579, 9.399776, 103.369574)"/>
<path fill-rule="nonzero" fill="rgb(13.723755%, 33.332825%, 23.527527%)" fill-opacity="1" stroke-width="0.3985" stroke-linecap="butt" stroke-linejoin="miter" stroke="rgb(13.723755%, 33.332825%, 23.527527%)" stroke-opacity="1" stroke-miterlimit="10" d="M 77.724698 21.611732 C 77.724698 23.811155 75.937667 25.594259 73.738244 25.594259 C 71.53882 25.594259 69.751789 23.811155 69.751789 21.611732 C 69.751789 19.408381 71.53882 17.625278 73.738244 17.625278 C 75.937667 17.625278 77.724698 19.408381 77.724698 21.611732 Z M 77.724698 21.611732 " transform="matrix(0.994579, 0, 0, -0.994579, 9.399776, 103.369574)"/>
<path fill-rule="nonzero" fill="rgb(13.723755%, 33.332825%, 23.527527%)" fill-opacity="1" d="M 107.339844 50.738281 C 107.339844 48.550781 105.566406 46.777344 103.375 46.777344 C 101.1875 46.777344 99.414062 48.550781 99.414062 50.738281 C 99.414062 52.929688 101.1875 54.703125 103.375 54.703125 C 105.566406 54.703125 107.339844 52.929688 107.339844 50.738281 Z M 107.339844 50.738281 "/>
<g clip-path="url(#clip-0)">
<path fill="none" stroke-width="0.3985" stroke-linecap="butt" stroke-linejoin="miter" stroke="rgb(13.723755%, 33.332825%, 23.527527%)" stroke-opacity="1" stroke-miterlimit="10" d="M 98.473899 52.918165 C 98.473899 55.117588 96.690796 56.900692 94.487445 56.900692 C 92.288022 56.900692 90.504918 55.117588 90.504918 52.918165 C 90.504918 50.714814 92.288022 48.93171 94.487445 48.93171 C 96.690796 48.93171 98.473899 50.714814 98.473899 52.918165 Z M 98.473899 52.918165 " transform="matrix(0.994579, 0, 0, -0.994579, 9.399776, 103.369574)"/>
</g>
<path fill-rule="nonzero" fill="rgb(13.723755%, 33.332825%, 23.527527%)" fill-opacity="1" stroke-width="0.3985" stroke-linecap="butt" stroke-linejoin="miter" stroke="rgb(13.723755%, 33.332825%, 23.527527%)" stroke-opacity="1" stroke-miterlimit="10" d="M 7.048591 65.957602 C 7.048591 68.157025 5.265487 69.940129 3.062136 69.940129 C 0.862713 69.940129 -0.920391 68.157025 -0.920391 65.957602 C -0.920391 63.754251 0.862713 61.971148 3.062136 61.971148 C 5.265487 61.971148 7.048591 63.754251 7.048591 65.957602 Z M 7.048591 65.957602 " transform="matrix(0.994579, 0, 0, -0.994579, 9.399776, 103.369574)"/>
<path fill-rule="nonzero" fill="rgb(13.723755%, 33.332825%, 23.527527%)" fill-opacity="1" d="M 52.714844 103.371094 C 52.714844 101.179688 50.9375 99.40625 48.75 99.40625 C 46.558594 99.40625 44.785156 101.179688 44.785156 103.371094 C 44.785156 105.558594 46.558594 107.332031 48.75 107.332031 C 50.9375 107.332031 52.714844 105.558594 52.714844 103.371094 Z M 52.714844 103.371094 "/>
<g clip-path="url(#clip-1)">
<path fill="none" stroke-width="0.3985" stroke-linecap="butt" stroke-linejoin="miter" stroke="rgb(13.723755%, 33.332825%, 23.527527%)" stroke-opacity="1" stroke-miterlimit="10" d="M 43.55116 -0.0015283 C 43.55116 2.201822 41.764129 3.984926 39.564706 3.984926 C 37.361355 3.984926 35.578251 2.201822 35.578251 -0.0015283 C 35.578251 -2.200951 37.361355 -3.984055 39.564706 -3.984055 C 41.764129 -3.984055 43.55116 -2.200951 43.55116 -0.0015283 Z M 43.55116 -0.0015283 " transform="matrix(0.994579, 0, 0, -0.994579, 9.399776, 103.369574)"/>
</g>
<path fill-rule="nonzero" fill="rgb(91.764832%, 53.33252%, 6.27594%)" fill-opacity="1" stroke-width="0.3985" stroke-linecap="butt" stroke-linejoin="miter" stroke="rgb(91.764832%, 53.33252%, 6.27594%)" stroke-opacity="1" stroke-miterlimit="10" d="M 54.673958 7.374394 C 54.673958 9.573818 52.890854 11.360849 50.687503 11.360849 C 48.48808 11.360849 46.704976 9.573818 46.704976 7.374394 C 46.704976 5.174971 48.48808 3.38794 50.687503 3.38794 C 52.890854 3.38794 54.673958 5.174971 54.673958 7.374394 Z M 54.673958 7.374394 " transform="matrix(0.994579, 0, 0, -0.994579, 9.399776, 103.369574)"/>
</svg>
