<?xml version="1.0" encoding="UTF-8"?>
<svg xmlns="http://www.w3.org/2000/svg" xmlns:xlink="http://www.w3.org/1999/xlink" width="177.143" height="152.792" viewBox="0 0 177.143 152.792">
<defs>
<clipPath id="clip-0">
<path clip-rule="nonzero" d="M 0 4 L 176.289062 4 L 176.289062 152.320312 L 0 152.320312 Z M 0 4 "/>
</clipPath>
<clipPath id="clip-1">
<path clip-rule="nonzero" d="M 0 30 L 176.289062 30 L 176.289062 137 L 0 137 Z M 0 30 "/>
</clipPath>
</defs>
<g clip-path="url(#clip-0)">
<path fill-rule="nonzero" fill="rgb(95.823669%, 88.88092%, 85.882568%)" fill-opacity="1" d="M 0 69.519531 L 1.78125 71.5 L 3.5625 73.496094 L 5.34375 75.503906 L 7.121094 77.519531 L 8.902344 79.546875 L 10.683594 81.578125 L 14.246094 85.648438 L 16.027344 87.675781 L 17.808594 89.695312 L 19.589844 91.703125 L 21.367188 93.695312 L 23.148438 95.667969 L 24.929688 97.613281 L 26.710938 99.53125 L 28.492188 101.414062 L 30.273438 103.253906 L 32.054688 105.046875 L 33.832031 106.792969 L 35.613281 108.480469 L 37.394531 110.101562 L 39.175781 108.476562 L 44.519531 100.378906 L 46.300781 97.6875 L 48.078125 95.015625 L 49.859375 92.367188 L 51.640625 89.742188 L 53.421875 87.15625 L 55.203125 84.605469 L 56.984375 82.097656 L 58.765625 79.640625 L 60.546875 77.234375 L 62.324219 74.886719 L 64.105469 72.605469 L 65.886719 70.386719 L 67.667969 68.242188 L 69.449219 66.171875 L 71.230469 64.179688 L 73.011719 62.265625 L 74.789062 60.441406 L 76.570312 58.703125 L 78.351562 57.058594 L 80.132812 55.507812 L 81.914062 54.050781 L 83.695312 52.695312 L 85.476562 51.441406 L 87.257812 50.292969 L 89.035156 49.246094 L 90.816406 48.308594 L 92.597656 47.480469 L 94.378906 46.761719 L 96.160156 46.152344 L 97.941406 45.660156 L 99.722656 45.277344 L 101.5 45.007812 L 103.28125 44.855469 L 105.0625 44.8125 L 106.84375 44.886719 L 108.625 45.074219 L 110.40625 45.375 L 112.1875 45.789062 L 113.96875 46.3125 L 115.746094 46.945312 L 117.527344 47.683594 L 119.308594 48.53125 L 121.089844 49.476562 L 122.871094 50.527344 L 124.652344 51.667969 L 126.433594 52.90625 L 128.210938 54.230469 L 129.992188 55.636719 L 131.773438 57.121094 L 133.554688 55.660156 L 135.335938 52.96875 L 137.117188 50.296875 L 138.898438 47.65625 L 140.679688 45.050781 L 142.457031 42.484375 L 144.238281 39.957031 L 146.019531 37.480469 L 147.800781 35.050781 L 149.582031 32.675781 L 151.363281 30.355469 L 153.144531 28.089844 L 154.925781 25.882812 L 156.703125 23.738281 L 158.484375 21.652344 L 160.265625 19.628906 L 162.046875 17.667969 L 163.828125 15.765625 L 165.609375 13.929688 L 167.390625 12.15625 L 169.167969 10.445312 L 170.949219 8.796875 L 172.730469 7.210938 L 174.511719 5.6875 L 176.292969 4.222656 L 176.292969 104.226562 L 174.511719 102.363281 L 172.730469 100.480469 L 170.949219 98.574219 L 169.167969 96.648438 L 167.390625 94.710938 L 165.609375 92.753906 L 163.828125 90.785156 L 162.046875 88.808594 L 160.265625 86.824219 L 158.484375 84.835938 L 156.703125 82.84375 L 154.925781 80.855469 L 153.144531 78.875 L 151.363281 76.902344 L 149.582031 74.941406 L 147.800781 73 L 146.019531 71.082031 L 144.238281 69.1875 L 142.457031 67.328125 L 140.679688 65.5 L 138.898438 63.71875 L 137.117188 61.984375 L 135.335938 60.300781 L 133.554688 58.679688 L 131.773438 58.375 L 129.992188 61.097656 L 128.210938 63.824219 L 126.433594 66.550781 L 124.652344 69.265625 L 122.871094 71.96875 L 121.089844 74.652344 L 119.308594 77.304688 L 117.527344 79.929688 L 115.746094 82.515625 L 113.96875 85.058594 L 112.1875 87.554688 L 110.40625 89.996094 L 108.625 92.382812 L 106.84375 94.707031 L 105.0625 96.964844 L 103.28125 99.152344 L 101.5 101.265625 L 99.722656 103.300781 L 97.941406 105.257812 L 96.160156 107.128906 L 94.378906 108.910156 L 92.597656 110.601562 L 90.816406 112.199219 L 89.035156 113.703125 L 87.257812 115.105469 L 85.476562 116.40625 L 83.695312 117.601562 L 81.914062 118.695312 L 80.132812 119.679688 L 78.351562 120.558594 L 76.570312 121.324219 L 74.789062 121.976562 L 73.011719 122.519531 L 71.230469 122.945312 L 69.449219 123.257812 L 67.667969 123.457031 L 65.886719 123.539062 L 64.105469 123.507812 L 62.324219 123.363281 L 60.546875 123.101562 L 58.765625 122.726562 L 56.984375 122.238281 L 55.203125 121.640625 L 53.421875 120.933594 L 51.640625 120.117188 L 49.859375 119.199219 L 48.078125 118.175781 L 46.300781 117.054688 L 44.519531 115.835938 L 42.738281 114.527344 L 40.957031 113.132812 L 39.175781 111.65625 L 37.394531 111.167969 L 35.613281 113.839844 L 33.832031 116.492188 L 32.054688 119.113281 L 30.273438 121.703125 L 28.492188 124.253906 L 26.710938 126.761719 L 24.929688 129.226562 L 23.148438 131.636719 L 21.367188 134 L 19.589844 136.304688 L 17.808594 138.554688 L 16.027344 140.746094 L 14.246094 142.875 L 12.464844 144.945312 L 10.683594 146.953125 L 8.902344 148.898438 L 7.121094 150.78125 L 5.34375 152.601562 L 3.5625 154.355469 L 1.78125 156.050781 L 0 157.679688 Z M 0 69.519531 "/>
</g>
<g clip-path="url(#clip-1)">
<path fill="none" stroke-width="1.59404" stroke-linecap="butt" stroke-linejoin="miter" stroke="rgb(72.155762%, 25.881958%, 5.880737%)" stroke-opacity="1" stroke-miterlimit="10" d="M 0 38.906441 L 1.789868 38.733734 L 3.579735 38.580653 L 5.369603 38.455049 L 7.155545 38.352995 L 8.945412 38.282342 L 10.73528 38.239166 L 12.525147 38.223465 L 14.315015 38.243091 L 16.104882 38.294118 L 17.89475 38.380471 L 19.684617 38.50215 L 21.47056 38.659156 L 23.260427 38.855414 L 25.050295 39.090923 L 26.840162 39.361758 L 28.63003 39.679695 L 30.419897 40.036883 L 32.209765 40.433323 L 33.995707 40.876865 L 35.785575 41.359658 L 37.575442 41.889553 L 39.36531 42.4587 L 41.155177 43.071023 L 42.945045 43.730448 L 44.734912 44.429124 L 46.52478 45.167052 L 48.310722 45.944231 L 50.10059 46.764587 L 51.890457 47.620269 L 53.680325 48.511278 L 55.470192 49.437613 L 57.26006 50.395349 L 59.049927 51.384486 L 60.839795 52.405025 L 62.625737 53.453039 L 64.415605 54.524605 L 66.205472 55.623646 L 67.99534 56.742313 L 69.785207 57.884532 L 71.575075 59.04245 L 73.364942 60.216069 L 75.150884 61.405389 L 76.940752 62.606485 L 78.730619 63.819355 L 80.520487 65.040076 L 82.310354 66.264723 L 84.100222 67.497219 L 85.89009 68.72579 L 87.679957 69.958287 L 89.465899 71.190783 L 91.255767 72.41543 L 93.045634 73.632225 L 94.835502 74.845096 L 96.625369 76.046192 L 98.415237 77.235511 L 100.205104 78.409131 L 101.991047 79.567049 L 103.780914 80.705342 L 105.570782 81.824009 L 107.360649 82.923051 L 109.150517 83.994616 L 110.940384 85.042631 L 112.730252 86.063169 L 114.520119 87.056232 L 116.306062 88.013968 L 118.095929 88.940303 L 119.885797 89.835237 L 121.675664 90.694844 L 123.465532 91.5152 L 125.255399 92.296304 L 127.045267 93.042083 L 128.831209 93.744684 L 130.621077 94.408034 L 132.410944 95.032133 L 134.200812 95.609129 L 135.990679 96.1508 L 137.780547 96.645368 L 139.570414 97.100686 L 141.360282 97.512826 L 143.146224 97.885715 L 144.936092 98.219353 L 146.725959 98.513739 L 148.515827 98.768874 L 150.305694 98.988682 L 152.095562 99.169239 L 153.885429 99.314469 L 155.675297 99.428298 L 157.461239 99.506801 L 159.251106 99.557828 L 161.040974 99.573529 L 162.830841 99.561753 L 164.620709 99.522502 L 166.410576 99.455774 L 168.200444 99.365496 L 169.986386 99.251667 L 171.776254 99.110361 L 173.566121 98.953356 L 175.355989 98.772799 L 177.145856 98.572616 " transform="matrix(0.995185, 0, 0, -0.995185, 0, 152.320684)"/>
</g>
<path fill-rule="nonzero" fill="rgb(63.134766%, 70.588684%, 78.039551%)" fill-opacity="1" stroke-width="0.3985" stroke-linecap="butt" stroke-linejoin="miter" stroke="rgb(63.134766%, 70.588684%, 78.039551%)" stroke-opacity="1" stroke-miterlimit="10" d="M 10.853034 34.883164 C 10.853034 35.986131 9.958101 36.877139 8.859059 36.877139 C 7.760018 36.877139 6.865084 35.986131 6.865084 34.883164 C 6.865084 33.784123 7.760018 32.893114 8.859059 32.893114 C 9.958101 32.893114 10.853034 33.784123 10.853034 34.883164 Z M 10.853034 34.883164 " transform="matrix(0.995185, 0, 0, -0.995185, 0, 152.320684)"/>
<path fill-rule="nonzero" fill="rgb(63.134766%, 70.588684%, 78.039551%)" fill-opacity="1" stroke-width="0.3985" stroke-linecap="butt" stroke-linejoin="miter" stroke="rgb(63.134766%, 70.588684%, 78.039551%)" stroke-opacity="1" stroke-miterlimit="10" d="M 28.64573 32.91274 C 28.64573 34.011781 27.750797 34.90279 26.651755 34.90279 C 25.552714 34.90279 24.65778 34.011781 24.65778 32.91274 C 24.65778 31.809773 25.552714 30.918764 26.651755 30.918764 C 27.750797 30.918764 28.64573 31.809773 28.64573 32.91274 Z M 28.64573 32.91274 " transform="matrix(0.995185, 0, 0, -0.995185, 0, 152.320684)"/>
<path fill-rule="nonzero" fill="rgb(63.134766%, 70.588684%, 78.039551%)" fill-opacity="1" stroke-width="0.3985" stroke-linecap="butt" stroke-linejoin="miter" stroke="rgb(63.134766%, 70.588684%, 78.039551%)" stroke-opacity="1" stroke-miterlimit="10" d="M 40.016884 42.026933 C 40.016884 43.125975 39.121951 44.016983 38.022909 44.016983 C 36.923868 44.016983 36.028934 43.125975 36.028934 42.026933 C 36.028934 40.923967 36.923868 40.032958 38.022909 40.032958 C 39.121951 40.032958 40.016884 40.923967 40.016884 42.026933 Z M 40.016884 42.026933 " transform="matrix(0.995185, 0, 0, -0.995185, 0, 152.320684)"/>
<path fill-rule="nonzero" fill="rgb(63.134766%, 70.588684%, 78.039551%)" fill-opacity="1" stroke-width="0.3985" stroke-linecap="butt" stroke-linejoin="miter" stroke="rgb(63.134766%, 70.588684%, 78.039551%)" stroke-opacity="1" stroke-miterlimit="10" d="M 134.930889 95.204839 C 134.930889 96.307806 134.039881 97.198814 132.936914 97.198814 C 131.837873 97.198814 130.946864 96.307806 130.946864 95.204839 C 130.946864 94.105798 131.837873 93.214789 132.936914 93.214789 C 134.039881 93.214789 134.930889 94.105798 134.930889 95.204839 Z M 134.930889 95.204839 " transform="matrix(0.995185, 0, 0, -0.995185, 0, 152.320684)"/>
<path fill-rule="nonzero" fill="rgb(63.134766%, 70.588684%, 78.039551%)" fill-opacity="1" stroke-width="0.3985" stroke-linecap="butt" stroke-linejoin="miter" stroke="rgb(63.134766%, 70.588684%, 78.039551%)" stroke-opacity="1" stroke-miterlimit="10" d="M 140.13171 91.311092 C 140.13171 92.414059 139.240702 93.305067 138.14166 93.305067 C 137.038694 93.305067 136.147685 92.414059 136.147685 91.311092 C 136.147685 90.212051 137.038694 89.321042 138.14166 89.321042 C 139.240702 89.321042 140.13171 90.212051 140.13171 91.311092 Z M 140.13171 91.311092 " transform="matrix(0.995185, 0, 0, -0.995185, 0, 152.320684)"/>
<path fill-rule="nonzero" fill="rgb(63.134766%, 70.588684%, 78.039551%)" fill-opacity="1" stroke-width="0.3985" stroke-linecap="butt" stroke-linejoin="miter" stroke="rgb(63.134766%, 70.588684%, 78.039551%)" stroke-opacity="1" stroke-miterlimit="10" d="M 153.437962 82.569788 C 153.437962 83.668829 152.546954 84.559838 151.443987 84.559838 C 150.344946 84.559838 149.453937 83.668829 149.453937 82.569788 C 149.453937 81.466821 150.344946 80.575812 151.443987 80.575812 C 152.546954 80.575812 153.437962 81.466821 153.437962 82.569788 Z M 153.437962 82.569788 " transform="matrix(0.995185, 0, 0, -0.995185, 0, 152.320684)"/>
<path fill-rule="nonzero" fill="rgb(63.134766%, 70.588684%, 78.039551%)" fill-opacity="1" stroke-width="0.3985" stroke-linecap="butt" stroke-linejoin="miter" stroke="rgb(63.134766%, 70.588684%, 78.039551%)" stroke-opacity="1" stroke-miterlimit="10" d="M 161.480591 80.638615 C 161.480591 81.737656 160.589582 82.63259 159.49054 82.63259 C 158.387574 82.63259 157.496565 81.737656 157.496565 80.638615 C 157.496565 79.539573 158.387574 78.64464 159.49054 78.64464 C 160.589582 78.64464 161.480591 79.539573 161.480591 80.638615 Z M 161.480591 80.638615 " transform="matrix(0.995185, 0, 0, -0.995185, 0, 152.320684)"/>
<path fill-rule="nonzero" fill="rgb(63.134766%, 70.588684%, 78.039551%)" fill-opacity="1" stroke-width="0.3985" stroke-linecap="butt" stroke-linejoin="miter" stroke="rgb(63.134766%, 70.588684%, 78.039551%)" stroke-opacity="1" stroke-miterlimit="10" d="M 170.265072 81.988866 C 170.265072 83.087907 169.374063 83.982841 168.271097 83.982841 C 167.172055 83.982841 166.281047 83.087907 166.281047 81.988866 C 166.281047 80.889824 167.172055 79.99489 168.271097 79.99489 C 169.374063 79.99489 170.265072 80.889824 170.265072 81.988866 Z M 170.265072 81.988866 " transform="matrix(0.995185, 0, 0, -0.995185, 0, 152.320684)"/>
<path fill-rule="nonzero" fill="rgb(91.764832%, 53.33252%, 6.27594%)" fill-opacity="1" stroke-width="0.3985" stroke-linecap="butt" stroke-linejoin="miter" stroke="rgb(91.764832%, 53.33252%, 6.27594%)" stroke-opacity="1" stroke-miterlimit="10" d="M 92.558916 78.950801 C 92.558916 81.148884 90.772974 82.934826 88.570966 82.934826 C 86.372883 82.934826 84.58694 81.148884 84.58694 78.950801 C 84.58694 76.748793 86.372883 74.962851 88.570966 74.962851 C 90.772974 74.962851 92.558916 76.748793 92.558916 78.950801 Z M 92.558916 78.950801 " transform="matrix(0.995185, 0, 0, -0.995185, 0, 152.320684)"/>
<path fill-rule="nonzero" fill="rgb(13.723755%, 33.332825%, 23.527527%)" fill-opacity="1" stroke-width="0.3985" stroke-linecap="butt" stroke-linejoin="miter" stroke="rgb(13.723755%, 33.332825%, 23.527527%)" stroke-opacity="1" stroke-miterlimit="10" d="M 136.924864 95.204839 C 136.924864 97.406847 135.138922 99.188864 132.936914 99.188864 C 130.738831 99.188864 128.952889 97.406847 128.952889 95.204839 C 128.952889 93.002831 130.738831 91.220814 132.936914 91.220814 C 135.138922 91.220814 136.924864 93.002831 136.924864 95.204839 Z M 136.924864 95.204839 " transform="matrix(0.995185, 0, 0, -0.995185, 0, 152.320684)"/>
<path fill-rule="nonzero" fill="rgb(13.723755%, 33.332825%, 23.527527%)" fill-opacity="1" stroke-width="0.3985" stroke-linecap="butt" stroke-linejoin="miter" stroke="rgb(13.723755%, 33.332825%, 23.527527%)" stroke-opacity="1" stroke-miterlimit="10" d="M 42.006934 42.026933 C 42.006934 44.228941 40.224917 46.010959 38.022909 46.010959 C 35.820901 46.010959 34.038884 44.228941 34.038884 42.026933 C 34.038884 39.824925 35.820901 38.042908 38.022909 38.042908 C 40.224917 38.042908 42.006934 39.824925 42.006934 42.026933 Z M 42.006934 42.026933 " transform="matrix(0.995185, 0, 0, -0.995185, 0, 152.320684)"/>
</svg>
