<?xml version="1.0" encoding="UTF-8" ?>
<svg
  xmlns="http://www.w3.org/2000/svg"
  xmlns:xlink="http://www.w3.org/1999/xlink"
  width="177.143"
  height="152.792"
  viewBox="0 0 177.143 152.792"
>
  <defs>
    <clipPath id="clip-0">
      <path
        clip-rule="nonzero"
        d="M 0 0.265625 L 176.289062 0.265625 L 176.289062 148 L 0 148 Z M 0 0.265625 "
      />
    </clipPath>
    <clipPath id="clip-1">
      <path
        clip-rule="nonzero"
        d="M 0 17 L 176.289062 17 L 176.289062 108 L 0 108 Z M 0 17 "
      />
    </clipPath>
  </defs>
  <g clip-path="url(#clip-0)">
    <path
      fill-rule="nonzero"
      fill="rgb(95.823669%, 88.88092%, 85.882568%)"
      fill-opacity="1"
      d="M 0 -24.640625 L 1.78125 -24.734375 L 3.5625 -24.816406 L 5.34375 -24.886719 L 7.121094 -24.941406 L 8.902344 -24.984375 L 10.683594 -25.007812 L 12.464844 -25.019531 L 14.246094 -25.011719 L 16.027344 -24.984375 L 17.808594 -24.941406 L 19.589844 -24.875 L 21.367188 -24.785156 L 23.148438 -24.675781 L 24.929688 -24.542969 L 26.710938 -24.382812 L 28.492188 -24.195312 L 30.273438 -23.980469 L 32.054688 -23.734375 L 33.832031 -23.460938 L 35.613281 -23.15625 L 37.394531 -22.816406 L 39.175781 -22.441406 L 40.957031 -22.03125 L 42.738281 -21.582031 L 44.519531 -21.097656 L 46.300781 -20.570312 L 48.078125 -20 L 49.859375 -19.390625 L 51.640625 -18.734375 L 53.421875 -18.03125 L 55.203125 -17.285156 L 56.984375 -16.488281 L 58.765625 -15.640625 L 60.546875 -14.742188 L 62.324219 -13.792969 L 64.105469 -12.789062 L 65.886719 -11.730469 L 67.667969 -10.617188 L 69.449219 -9.449219 L 71.230469 -8.222656 L 73.011719 -6.941406 L 74.789062 -5.597656 L 76.570312 -4.199219 L 78.351562 -2.742188 L 80.132812 -1.222656 L 81.914062 0.351562 L 83.695312 1.984375 L 85.476562 3.675781 L 87.257812 5.421875 L 89.035156 7.226562 L 90.816406 9.082031 L 92.597656 10.992188 L 94.378906 12.953125 L 96.160156 14.960938 L 97.941406 17.011719 L 99.722656 19.105469 L 101.5 21.242188 L 103.28125 23.40625 L 105.0625 25.605469 L 106.84375 27.828125 L 108.625 30.066406 L 110.40625 32.320312 L 113.96875 36.835938 L 115.746094 39.082031 L 117.527344 41.308594 L 119.308594 43.507812 L 121.089844 45.664062 L 122.871094 47.773438 L 124.652344 49.820312 L 126.433594 51.789062 L 128.210938 53.671875 L 129.992188 55.449219 L 131.773438 57.109375 L 133.554688 58.367188 L 135.335938 59.65625 L 137.117188 61.128906 L 138.898438 62.277344 L 140.679688 63.171875 L 142.457031 63.914062 L 144.238281 64.503906 L 146.019531 64.953125 L 147.800781 65.261719 L 149.582031 65.4375 L 151.363281 65.492188 L 153.144531 65.421875 L 154.925781 65.242188 L 156.703125 64.953125 L 158.484375 64.566406 L 160.265625 64.085938 L 162.046875 63.519531 L 163.828125 62.871094 L 165.609375 62.148438 L 167.390625 61.359375 L 169.167969 60.503906 L 170.949219 59.589844 L 172.730469 58.628906 L 174.511719 57.617188 L 176.292969 56.5625 L 176.292969 113.996094 L 174.511719 111.503906 L 172.730469 108.976562 L 170.949219 106.417969 L 169.167969 103.832031 L 167.390625 101.226562 L 165.609375 98.601562 L 163.828125 95.96875 L 162.046875 93.328125 L 160.265625 90.695312 L 158.484375 88.070312 L 156.703125 85.464844 L 154.925781 82.886719 L 153.144531 80.347656 L 151.363281 77.855469 L 149.582031 75.421875 L 147.800781 73.058594 L 146.019531 70.78125 L 144.238281 68.597656 L 142.457031 66.527344 L 140.679688 64.582031 L 138.898438 62.777344 L 137.117188 61.222656 L 135.335938 60.007812 L 133.554688 58.632812 L 131.773438 57.269531 L 129.992188 56.363281 L 128.210938 55.644531 L 126.433594 55.105469 L 124.652344 54.742188 L 122.871094 54.550781 L 121.089844 54.519531 L 119.308594 54.644531 L 117.527344 54.917969 L 115.746094 55.335938 L 113.96875 55.882812 L 112.1875 56.554688 L 110.40625 57.347656 L 108.625 58.25 L 106.84375 59.253906 L 105.0625 60.355469 L 103.28125 61.546875 L 101.5 62.820312 L 99.722656 64.167969 L 97.941406 65.582031 L 96.160156 67.0625 L 94.378906 68.59375 L 92.597656 70.179688 L 90.816406 71.808594 L 89.035156 73.480469 L 87.257812 75.183594 L 85.476562 76.914062 L 83.695312 78.671875 L 81.914062 80.453125 L 80.132812 82.246094 L 78.351562 84.054688 L 76.570312 85.871094 L 74.789062 87.695312 L 73.011719 89.519531 L 69.449219 93.160156 L 67.667969 94.976562 L 65.886719 96.78125 L 64.105469 98.574219 L 62.324219 100.355469 L 60.546875 102.121094 L 58.765625 103.871094 L 56.984375 105.601562 L 55.203125 107.316406 L 53.421875 109.003906 L 51.640625 110.671875 L 49.859375 112.320312 L 48.078125 113.9375 L 46.300781 115.535156 L 44.519531 117.105469 L 42.738281 118.648438 L 40.957031 120.164062 L 39.175781 121.652344 L 37.394531 123.113281 L 35.613281 124.546875 L 33.832031 125.949219 L 32.054688 127.328125 L 30.273438 128.671875 L 28.492188 129.992188 L 26.710938 131.28125 L 24.929688 132.542969 L 23.148438 133.773438 L 21.367188 134.980469 L 19.589844 136.15625 L 17.808594 137.304688 L 16.027344 138.421875 L 14.246094 139.515625 L 12.464844 140.582031 L 10.683594 141.621094 L 8.902344 142.632812 L 7.121094 143.621094 L 5.34375 144.582031 L 3.5625 145.515625 L 1.78125 146.425781 L 0 147.3125 Z M 0 -24.640625 "
    />
  </g>
  <g clip-path="url(#clip-1)">
    <path
      fill="none"
      stroke-width="1.59404"
      stroke-linecap="butt"
      stroke-linejoin="miter"
      stroke="rgb(72.155762%, 25.881958%, 5.880737%)"
      stroke-opacity="1"
      stroke-miterlimit="10"
      d="M 0 91.424922 L 1.789868 91.915565 L 3.579735 92.414059 L 5.369603 92.920403 L 7.155545 93.430672 L 8.945412 93.948792 L 10.73528 94.470836 L 12.525147 94.996806 L 14.315015 95.526701 L 16.104882 96.064447 L 19.684617 97.147787 L 21.47056 97.693383 L 23.260427 98.242904 L 32.209765 101.010133 L 33.995707 101.563579 L 35.785575 102.117025 L 37.575442 102.666546 L 39.36531 103.212141 L 41.155177 103.753812 L 42.945045 104.291557 L 44.734912 104.821452 L 46.52478 105.343497 L 48.310722 105.861616 L 50.10059 106.36796 L 51.890457 106.866454 L 53.680325 107.349247 L 55.470192 107.82419 L 57.26006 108.283432 L 59.049927 108.726974 L 60.839795 109.154815 L 62.625737 109.566956 L 64.415605 109.955545 L 66.205472 110.328435 L 67.99534 110.673848 L 69.785207 110.999635 L 71.575075 111.297946 L 73.364942 111.568781 L 75.150884 111.812141 L 76.940752 112.024099 L 78.730619 112.204655 L 80.520487 112.349886 L 82.310354 112.45979 L 84.100222 112.534368 L 85.89009 112.565769 L 87.679957 112.561844 L 89.465899 112.510817 L 91.255767 112.416613 L 93.045634 112.275308 L 94.835502 112.086901 L 96.625369 111.847467 L 98.415237 111.560931 L 100.205104 111.219443 L 101.991047 110.823003 L 103.780914 110.375536 L 105.570782 109.869192 L 107.360649 109.307896 L 109.150517 108.683798 L 110.940384 108.008672 L 112.730252 107.270744 L 114.520119 106.473939 L 116.306062 105.622182 L 118.095929 104.711548 L 119.885797 103.745961 L 121.675664 102.721498 L 123.465532 101.646007 L 125.255399 100.523415 L 127.045267 99.349795 L 128.831209 98.133 L 130.621077 96.880877 L 132.410944 95.589504 L 134.200812 94.274579 L 135.990679 92.936104 L 137.780547 91.585853 L 141.360282 88.86965 L 143.146224 87.519399 L 144.936092 86.184849 L 146.725959 84.862074 L 148.515827 83.56285 L 150.305694 82.287177 L 152.095562 81.03898 L 153.885429 79.822184 L 155.675297 78.636789 L 157.461239 77.482796 L 159.251106 76.368054 L 161.040974 75.292563 L 162.830841 74.252399 L 164.620709 73.255411 L 166.410576 72.29375 L 168.200444 71.37134 L 169.986386 70.492107 L 171.776254 69.652125 L 173.566121 68.851395 L 175.355989 68.089916 L 177.145856 67.363764 "
      transform="matrix(0.995185, 0, 0, -0.995185, 0, 152.320684)"
    />
  </g>
  <path
    fill-rule="nonzero"
    fill="rgb(63.134766%, 70.588684%, 78.039551%)"
    fill-opacity="1"
    stroke-width="0.3985"
    stroke-linecap="butt"
    stroke-linejoin="miter"
    stroke="rgb(63.134766%, 70.588684%, 78.039551%)"
    stroke-opacity="1"
    stroke-miterlimit="10"
    d="M 10.853034 34.883164 C 10.853034 35.986131 9.958101 36.877139 8.859059 36.877139 C 7.760018 36.877139 6.865084 35.986131 6.865084 34.883164 C 6.865084 33.784123 7.760018 32.893114 8.859059 32.893114 C 9.958101 32.893114 10.853034 33.784123 10.853034 34.883164 Z M 10.853034 34.883164 "
    transform="matrix(0.995185, 0, 0, -0.995185, 0, 152.320684)"
  />
  <path
    fill-rule="nonzero"
    fill="rgb(63.134766%, 70.588684%, 78.039551%)"
    fill-opacity="1"
    stroke-width="0.3985"
    stroke-linecap="butt"
    stroke-linejoin="miter"
    stroke="rgb(63.134766%, 70.588684%, 78.039551%)"
    stroke-opacity="1"
    stroke-miterlimit="10"
    d="M 28.64573 32.91274 C 28.64573 34.011781 27.750797 34.90279 26.651755 34.90279 C 25.552714 34.90279 24.65778 34.011781 24.65778 32.91274 C 24.65778 31.809773 25.552714 30.918764 26.651755 30.918764 C 27.750797 30.918764 28.64573 31.809773 28.64573 32.91274 Z M 28.64573 32.91274 "
    transform="matrix(0.995185, 0, 0, -0.995185, 0, 152.320684)"
  />
  <path
    fill-rule="nonzero"
    fill="rgb(63.134766%, 70.588684%, 78.039551%)"
    fill-opacity="1"
    stroke-width="0.3985"
    stroke-linecap="butt"
    stroke-linejoin="miter"
    stroke="rgb(63.134766%, 70.588684%, 78.039551%)"
    stroke-opacity="1"
    stroke-miterlimit="10"
    d="M 40.016884 42.026933 C 40.016884 43.125975 39.121951 44.016983 38.022909 44.016983 C 36.923868 44.016983 36.028934 43.125975 36.028934 42.026933 C 36.028934 40.923967 36.923868 40.032958 38.022909 40.032958 C 39.121951 40.032958 40.016884 40.923967 40.016884 42.026933 Z M 40.016884 42.026933 "
    transform="matrix(0.995185, 0, 0, -0.995185, 0, 152.320684)"
  />
  <path
    fill-rule="nonzero"
    fill="rgb(63.134766%, 70.588684%, 78.039551%)"
    fill-opacity="1"
    stroke-width="0.3985"
    stroke-linecap="butt"
    stroke-linejoin="miter"
    stroke="rgb(63.134766%, 70.588684%, 78.039551%)"
    stroke-opacity="1"
    stroke-miterlimit="10"
    d="M 134.930889 95.204839 C 134.930889 96.307806 134.039881 97.198814 132.936914 97.198814 C 131.837873 97.198814 130.946864 96.307806 130.946864 95.204839 C 130.946864 94.105798 131.837873 93.214789 132.936914 93.214789 C 134.039881 93.214789 134.930889 94.105798 134.930889 95.204839 Z M 134.930889 95.204839 "
    transform="matrix(0.995185, 0, 0, -0.995185, 0, 152.320684)"
  />
  <path
    fill-rule="nonzero"
    fill="rgb(63.134766%, 70.588684%, 78.039551%)"
    fill-opacity="1"
    stroke-width="0.3985"
    stroke-linecap="butt"
    stroke-linejoin="miter"
    stroke="rgb(63.134766%, 70.588684%, 78.039551%)"
    stroke-opacity="1"
    stroke-miterlimit="10"
    d="M 140.13171 91.311092 C 140.13171 92.414059 139.240702 93.305067 138.14166 93.305067 C 137.038694 93.305067 136.147685 92.414059 136.147685 91.311092 C 136.147685 90.212051 137.038694 89.321042 138.14166 89.321042 C 139.240702 89.321042 140.13171 90.212051 140.13171 91.311092 Z M 140.13171 91.311092 "
    transform="matrix(0.995185, 0, 0, -0.995185, 0, 152.320684)"
  />
  <path
    fill-rule="nonzero"
    fill="rgb(63.134766%, 70.588684%, 78.039551%)"
    fill-opacity="1"
    stroke-width="0.3985"
    stroke-linecap="butt"
    stroke-linejoin="miter"
    stroke="rgb(63.134766%, 70.588684%, 78.039551%)"
    stroke-opacity="1"
    stroke-miterlimit="10"
    d="M 153.437962 82.569788 C 153.437962 83.668829 152.546954 84.559838 151.443987 84.559838 C 150.344946 84.559838 149.453937 83.668829 149.453937 82.569788 C 149.453937 81.466821 150.344946 80.575812 151.443987 80.575812 C 152.546954 80.575812 153.437962 81.466821 153.437962 82.569788 Z M 153.437962 82.569788 "
    transform="matrix(0.995185, 0, 0, -0.995185, 0, 152.320684)"
  />
  <path
    fill-rule="nonzero"
    fill="rgb(63.134766%, 70.588684%, 78.039551%)"
    fill-opacity="1"
    stroke-width="0.3985"
    stroke-linecap="butt"
    stroke-linejoin="miter"
    stroke="rgb(63.134766%, 70.588684%, 78.039551%)"
    stroke-opacity="1"
    stroke-miterlimit="10"
    d="M 161.480591 80.638615 C 161.480591 81.737656 160.589582 82.63259 159.49054 82.63259 C 158.387574 82.63259 157.496565 81.737656 157.496565 80.638615 C 157.496565 79.539573 158.387574 78.64464 159.49054 78.64464 C 160.589582 78.64464 161.480591 79.539573 161.480591 80.638615 Z M 161.480591 80.638615 "
    transform="matrix(0.995185, 0, 0, -0.995185, 0, 152.320684)"
  />
  <path
    fill-rule="nonzero"
    fill="rgb(63.134766%, 70.588684%, 78.039551%)"
    fill-opacity="1"
    stroke-width="0.3985"
    stroke-linecap="butt"
    stroke-linejoin="miter"
    stroke="rgb(63.134766%, 70.588684%, 78.039551%)"
    stroke-opacity="1"
    stroke-miterlimit="10"
    d="M 170.265072 81.988866 C 170.265072 83.087907 169.374063 83.982841 168.271097 83.982841 C 167.172055 83.982841 166.281047 83.087907 166.281047 81.988866 C 166.281047 80.889824 167.172055 79.99489 168.271097 79.99489 C 169.374063 79.99489 170.265072 80.889824 170.265072 81.988866 Z M 170.265072 81.988866 "
    transform="matrix(0.995185, 0, 0, -0.995185, 0, 152.320684)"
  />
  <path
    fill-rule="nonzero"
    fill="rgb(91.764832%, 53.33252%, 6.27594%)"
    fill-opacity="1"
    stroke-width="0.3985"
    stroke-linecap="butt"
    stroke-linejoin="miter"
    stroke="rgb(91.764832%, 53.33252%, 6.27594%)"
    stroke-opacity="1"
    stroke-miterlimit="10"
    d="M 92.558916 78.950801 C 92.558916 81.148884 90.772974 82.934826 88.570966 82.934826 C 86.372883 82.934826 84.58694 81.148884 84.58694 78.950801 C 84.58694 76.748793 86.372883 74.962851 88.570966 74.962851 C 90.772974 74.962851 92.558916 76.748793 92.558916 78.950801 Z M 92.558916 78.950801 "
    transform="matrix(0.995185, 0, 0, -0.995185, 0, 152.320684)"
  />
  <path
    fill-rule="nonzero"
    fill="rgb(13.723755%, 33.332825%, 23.527527%)"
    fill-opacity="1"
    stroke-width="0.3985"
    stroke-linecap="butt"
    stroke-linejoin="miter"
    stroke="rgb(13.723755%, 33.332825%, 23.527527%)"
    stroke-opacity="1"
    stroke-miterlimit="10"
    d="M 142.125686 91.311092 C 142.125686 93.5131 140.339743 95.299043 138.14166 95.299043 C 135.939652 95.299043 134.15371 93.5131 134.15371 91.311092 C 134.15371 89.113009 135.939652 87.327067 138.14166 87.327067 C 140.339743 87.327067 142.125686 89.113009 142.125686 91.311092 Z M 142.125686 91.311092 "
    transform="matrix(0.995185, 0, 0, -0.995185, 0, 152.320684)"
  />
  <path
    fill-rule="nonzero"
    fill="rgb(13.723755%, 33.332825%, 23.527527%)"
    fill-opacity="1"
    stroke-width="0.3985"
    stroke-linecap="butt"
    stroke-linejoin="miter"
    stroke="rgb(13.723755%, 33.332825%, 23.527527%)"
    stroke-opacity="1"
    stroke-miterlimit="10"
    d="M 136.924864 95.204839 C 136.924864 97.406847 135.138922 99.188864 132.936914 99.188864 C 130.738831 99.188864 128.952889 97.406847 128.952889 95.204839 C 128.952889 93.002831 130.738831 91.220814 132.936914 91.220814 C 135.138922 91.220814 136.924864 93.002831 136.924864 95.204839 Z M 136.924864 95.204839 "
    transform="matrix(0.995185, 0, 0, -0.995185, 0, 152.320684)"
  />
</svg>
